<svg xmlns="http://www.w3.org/2000/svg" width="52.601" height="56.257" viewBox="0 0 52.601 56.257"><defs><style>.a{fill:#ff405f;stroke:#ff405f;stroke-width:2px;}</style></defs><g transform="translate(-169.743 -104.399)"><g transform="translate(170.743 105.399)"><path class="a" d="M294.426,144.5h24.415a5.426,5.426,0,0,1,5.426,5.426v5.426h-5.426v-5.426H294.426v43.405h24.415v-5.426h5.426v5.426a5.426,5.426,0,0,1-5.426,5.426H294.426A5.426,5.426,0,0,1,289,193.331V149.926A5.426,5.426,0,0,1,294.426,144.5Z" transform="translate(-289 -144.5)"/><path class="a" d="M669.484,529.053l3.825,3.825,13.564-13.564L673.309,505.75l-3.825,3.825,7,7.026H650.25v5.426h26.233Z" transform="translate(-636.686 -492.186)"/></g></g></svg>